<svg width="183" height="164" viewBox="0 0 183 164" fill="none" xmlns="http://www.w3.org/2000/svg">
<mask id="mask0_1927_792" style="mask-type:luminance" maskUnits="userSpaceOnUse" x="0" y="0" width="183" height="164">
<path d="M149.461 4.0412e-06L0 40.0479L33.1702 163.841L182.631 123.793L149.461 4.0412e-06Z" fill="white"/>
</mask>
<g mask="url(#mask0_1927_792)">
<path d="M60.6292 155.277C61.3511 157.971 86.4563 153.584 116.706 145.478C146.954 137.373 170.89 128.621 170.168 125.926C169.446 123.232 144.341 127.62 114.092 135.725C83.8476 143.829 59.9072 152.583 60.6292 155.277Z" fill="#DDDCE5"/>
<path d="M53.1754 95.2276C53.3886 100.711 56.0279 119.331 51.7772 146.039C48.0895 147.358 47.0548 147.45 42.6439 150.096C39.7101 151.857 34.0044 153.725 34.8238 155.273C37.0356 155.074 53.9741 151.937 55.4759 149.563C56.9777 147.188 65.2029 126.715 63.4906 92.9067C58.9233 93.934 56.3623 94.5123 53.1754 95.2276Z" fill="#D58230"/>
<path d="M39.2097 154.549C38.8962 154.529 38.5576 154.473 38.2894 154.306C37.8689 154.045 38.2321 153.632 38.5041 153.44C39.2981 152.88 40.3431 152.654 41.2563 152.367C42.9444 151.838 44.6387 151.303 46.3431 150.834C44.8551 151.507 43.3339 152.084 41.7846 152.599C40.8969 152.895 39.971 153.12 39.1042 153.479C38.941 153.546 38.1565 153.81 38.3364 154.093C38.5024 154.353 38.9356 154.46 39.2097 154.549Z" fill="#C27253"/>
<path d="M86.536 19.8263C91.0826 21.5975 95.621 27.3351 93.8487 37.5566C92.5443 45.0678 95.7344 46.9521 100.157 51.7808C94.9088 56.3074 67.1599 66.1851 57.373 50.4931C58.6106 40.4611 69.1745 13.0597 86.536 19.8263Z" fill="#353535"/>
<path d="M79.1368 24.9795C78.6151 25.6779 77.9075 26.272 77.14 26.6857C76.2079 27.1897 75.1268 27.3099 74.2105 27.8443C73.3346 28.3564 72.8443 29.1003 72.5633 30.0501C72.3516 30.7695 71.5283 31.2482 70.9845 31.7059C69.1476 33.2614 67.4624 34.9804 66.1625 37.0161C64.9093 38.9814 64.0424 41.2093 63.6278 43.5009C63.2611 45.5253 63.2472 47.5439 63.3565 49.591C62.928 45.8496 63.2126 42.1096 64.8389 38.6613C65.6923 36.857 66.8524 35.2055 68.2299 33.7616C68.9873 32.9653 69.8055 32.2376 70.6494 31.5338C71.0527 31.1984 71.4732 30.87 71.8589 30.5124C72.0011 30.3818 72.1532 30.2448 72.2268 30.0594C72.3826 29.6632 72.5601 29.0031 72.9154 28.6036C73.4438 27.9303 74.2436 27.4502 75.0648 27.2225C75.9363 26.9813 76.7966 26.77 77.5765 26.2875C78.1537 25.9402 78.6988 25.5014 79.1368 24.9795Z" fill="#5E3E3E"/>
<path d="M83.1993 25.4746C82.6812 26.1721 81.9824 26.7561 81.2341 27.1839C80.189 27.7837 79.069 27.845 77.9213 28.0908C76.7926 28.3355 75.5966 28.76 74.8301 29.6665C74.4797 30.084 74.3374 30.5883 74.0681 31.0495C73.7751 31.5518 73.3395 31.9536 72.8677 32.2919C71.9608 32.9471 70.9287 33.4086 70.0412 34.0933C69.134 34.7909 68.5299 35.7426 68.027 36.7557C66.9557 38.9111 66.3634 41.3158 66.0604 43.693C65.6454 46.9748 65.9055 50.2606 67.0042 53.3833C65.2988 49.2327 65.259 44.6128 66.3562 40.2968C66.6518 39.1428 67.0316 38.0009 67.5234 36.9176C67.9996 35.8769 68.5794 34.8201 69.4649 34.0705C70.3583 33.3072 71.4241 32.8135 72.4018 32.1779C73.2054 31.6544 73.7133 31.0483 74.1023 30.1851C74.8888 28.4334 77.1359 27.9199 78.8447 27.7124C79.8221 27.5931 80.7022 27.3842 81.5518 26.8599C82.1631 26.4958 82.7419 26.0248 83.1993 25.4746Z" fill="#5E3E3E"/>
<path d="M70.1931 34.5024C68.9014 36.5397 68.4226 39.0373 68.2801 41.41C68.1262 43.9553 68.6769 46.4274 69.2795 48.8779C68.3848 46.5018 67.7113 43.974 67.8875 41.4112C68.0515 39.0327 68.598 36.3706 70.1931 34.5024Z" fill="#5E3E3E"/>
<path d="M86.5664 25.2768C86.9715 23.87 87.5238 22.5239 87.535 21.0415C88.1361 22.3791 87.4937 24.2231 86.5664 25.2768Z" fill="#5E3E3E"/>
<path d="M90.4492 26.8521C91.9581 29.4642 92.4093 32.7296 92.0374 35.6839C91.8168 37.4342 91.5605 39.1518 91.5523 40.9184C91.4881 42.361 91.9594 43.7603 92.5479 45.0511C91.8329 43.8057 91.3555 42.5275 91.2716 41.0784C91.1737 39.3903 91.3759 37.7296 91.5942 36.0569C91.8286 34.2721 91.8748 32.5608 91.5776 30.7759C91.3521 29.4456 90.99 28.0941 90.4492 26.8521Z" fill="#5E3E3E"/>
<path d="M89.3839 35.1157C89.8888 39.8036 90.4351 44.8618 93.0745 48.8893C91.4229 47.082 90.4961 44.7299 90.0165 42.3505C89.5014 40.0114 89.2165 37.5105 89.3839 35.1157Z" fill="#5E3E3E"/>
<path d="M54.2371 114.314C55.4343 107.783 62.4366 104.758 72.4097 107.587C82.3827 110.416 88.2666 112.534 97.1155 115.021C104.45 107.485 117.258 94.0525 127.04 88.8079C136.819 83.5642 148.951 82.4593 152.96 87.6452C156.817 92.6369 155.577 102.385 116.623 129.711C116.655 130.377 116.708 131.048 116.772 131.517C114.402 131.759 112.592 131.935 111.168 132.055C104.681 133.593 78.6632 149.818 71.1225 131.625C63.0407 129.988 52.1412 125.743 54.2371 114.314Z" fill="#120938"/>
<path d="M110.768 101.419C110.958 108.457 108.201 114.628 104.099 117.279C101.26 116.387 96.643 115.028 94.5254 114.328C98.6344 109.779 107.422 104.462 110.768 101.419Z" fill="#313E61"/>
<path d="M152.959 87.6413C152.127 86.5622 150.937 85.76 149.498 85.2056C145.192 88.2278 139.291 93.1219 136.643 96.4088C145.819 92.2205 150.728 90.8471 154.37 90.9962C154.213 89.6629 153.674 88.5708 152.959 87.6413Z" fill="#313E61"/>
<path d="M92.3893 132.726C85.295 133.236 78.1218 132.862 71.1172 131.622C72.6252 131.657 74.1306 131.755 75.6353 131.864C77.6742 132.011 79.7115 132.124 81.7508 132.244C85.2903 132.47 88.8517 132.448 92.3893 132.726Z" fill="#2E3A5C"/>
<path d="M97.1133 115.018C100.429 115.905 103.719 116.881 107.014 117.851C108.883 118.398 110.752 118.945 112.623 119.487C114.044 119.904 115.484 120.273 116.901 120.714C113.492 120.214 110.165 119.345 106.85 118.415C103.572 117.398 100.267 116.392 97.1133 115.018Z" fill="#2E3A5C"/>
<path opacity="0.5" d="M109.189 118.959C108.984 119.014 108.699 118.898 108.731 118.689C108.77 118.459 112.361 114.97 113.208 114.103C114.723 112.553 116.221 110.985 117.714 109.413C120.634 106.335 123.49 103.177 126.539 100.222C127.723 99.0763 128.944 97.9554 130.273 96.9754C130.813 96.5763 131.376 96.2022 131.965 95.871C132.172 95.7537 132.559 95.4575 132.803 95.5039C132.997 95.5404 133.102 95.7589 133.01 95.9337C132.931 96.0822 132.702 96.1474 132.559 96.2202C129.727 97.6994 127.397 100.146 125.187 102.407C122.604 105.044 120.103 107.76 117.557 110.438C116.256 111.807 114.949 113.167 113.631 114.518C112.886 115.276 109.408 118.901 109.189 118.959Z" fill="#AD5ADC"/>
<path d="M65.5249 59.2379C56.4798 62.6902 53.3151 62.525 52.2635 68.5353C51.2155 74.5447 50.9581 84.4103 51.1394 96.8475C56.2898 97.436 62.4169 96.3067 64.5986 95.0171C64.7494 93.0928 64.6188 91.1246 64.6857 89.1458C66.6151 93.5137 70.6299 96.5639 75.8446 108.593C82.2012 110.807 92.4981 113.838 97.1169 115.016C102.259 114.84 106.457 117.137 110.77 101.415C105.157 91.9816 97.0905 67.357 97.1382 51.0869C93.4504 51.9171 90.7778 52.4098 86.4199 52.6799C82.9618 54.7699 75.4832 60.8188 65.5249 59.2379Z" fill="#F9B03F"/>
<path d="M109.473 99.0586C107.703 95.5997 105.785 90.9437 104.003 85.7157C99.9864 83.1629 95.0527 80.0623 92.6191 78.6572C96.5111 87.4458 101.92 95.7123 109.473 99.0586Z" fill="black" fill-opacity="0.21"/>
<path d="M80.416 101.077C88.2422 106.03 96.645 114.142 106.363 106.919C102.973 112.28 94.9784 116.907 80.416 101.077Z" fill="black" fill-opacity="0.21"/>
<path d="M64.1434 77.8193C64.1211 80.4102 64.5378 82.6986 64.686 89.1464C65.2078 90.3318 66.2603 92.1031 67.5469 93.8426C66.4494 89.1285 66.119 84.2435 64.1434 77.8193Z" fill="black" fill-opacity="0.21"/>
<path d="M64.6858 89.1459C64.1542 83.841 63.9151 78.477 63.9734 73.145C64.5049 78.4499 64.7451 83.8175 64.6858 89.1459Z" fill="#7A1C3F"/>
<path d="M85.1102 81.8237C83.1574 87.4321 78.0098 90.233 74.5449 89.0772C79.5709 91.9759 84.3269 87.6273 85.1102 81.8237Z" fill="black" fill-opacity="0.21"/>
<path d="M131.902 121.244C135.022 119.172 138.328 118.941 140.599 118.98C145.693 119.067 159.012 118.858 158.907 123.871C158.756 131.057 149.201 130.436 139.268 130.559C133.127 130.632 127.904 129.138 127.527 126.755C129.182 124.477 130.372 124.074 131.902 121.244Z" fill="#252938"/>
<path d="M116.952 120.704C123.908 121.606 127.321 121.2 129.797 120.81C132.274 120.42 145.738 119.355 146.336 123.14C146.933 126.921 142.399 129.511 130.685 128.955C118.972 128.403 122.357 128.798 116.621 129.707C116.407 127.11 116.274 123.078 116.952 120.704Z" fill="#D58230"/>
<path d="M92.3896 132.725C91.0561 133.024 88.631 134.225 86.7237 135.46C82.4493 138.228 72.334 144.27 75.0728 148.468C79.0039 154.484 86.7811 148.902 95.274 143.748C100.522 140.562 104.756 134.624 103.813 132.399C100.572 132.524 98.4291 132.663 92.3896 132.725Z" fill="#252938"/>
<path d="M93.7991 132.705C92.6581 133.234 84.0056 138.827 85.3505 141.187C87.2469 144.512 93.5055 143.528 101.709 137.84C105.662 135.097 105.814 134.313 111.163 132.048C105.778 132.311 99.8145 132.554 93.7991 132.705Z" fill="#D58230"/>
<path d="M82.6756 46.3258C82.7287 49.3704 83.0244 52.142 86.4176 52.6851C86.9415 57.4874 83.7122 77.6264 65.5215 59.2396C68.9763 57.8131 70.2357 56.4316 70.7629 53.9134C71.2866 51.3962 71.4568 48.2647 71.3851 42.6055C73.9324 44.219 79.572 45.7128 82.6756 46.3258Z" fill="#D58230"/>
<path d="M71.3672 47.7959C72.8802 52.206 81.1812 57.5364 82.868 48.9365C81.135 48.4069 73.684 47.83 71.3672 47.7959Z" fill="#653924"/>
<path d="M86.5667 25.2773C85.1776 28.0727 83.4219 28.7666 79.3591 29.678C74.2397 30.8301 75.7744 33.8977 71.4959 34.2775C71.108 31.3919 69.0595 29.7565 67.8526 31.9522C67.1738 33.1858 66.9054 37.0292 69.7826 37.545C68.8349 43.1807 70.4046 49.8871 75.9484 50.8942C81.7593 51.9491 87.1226 46.1434 89.6466 38.3247C90.2013 33.896 90.1694 29.2624 86.5667 25.2773Z" fill="#D58230"/>
<path d="M80.13 40.8783C80.5139 41.6499 81.5005 42.2408 82.3079 41.6739C82.3017 41.6794 82.2954 41.6849 82.2892 41.6904C82.8232 41.0812 82.648 39.8954 82.6328 39.1482C82.6144 38.217 82.5481 37.2794 82.5839 36.3491C82.7398 37.0893 82.8536 37.8447 82.9368 38.6006C83.0378 39.5097 83.1568 40.5719 82.8529 41.4508C82.6886 41.9301 82.3135 42.1693 81.8075 42.1932C81.3583 42.2134 80.9104 42.0368 80.5945 41.7208C80.5386 41.6702 80.031 40.8971 80.13 40.8783Z" fill="#C27253"/>
<path d="M81.1461 45.3293C79.8027 45.6354 78.1251 44.8521 77.9121 43.4106C78.2771 43.9099 78.6417 44.3361 79.1991 44.6337C79.8148 44.9618 80.4805 45.1456 81.1461 45.3293Z" fill="#AD664A"/>
<path d="M84.4355 36.1423C85.0523 35.3529 86.3109 35.8517 86.5974 36.6764C86.2552 36.5061 85.9478 36.2649 85.5663 36.1783C85.2035 36.0752 84.8075 36.0927 84.4355 36.1423Z" fill="#C27253"/>
<path d="M84.2188 34.7555C85.0795 33.4963 87.221 34.1129 87.4411 35.5525C86.9691 35.3438 86.5431 35.0766 86.045 34.9288C85.459 34.7545 84.8238 34.7706 84.2188 34.7555Z" fill="#252938"/>
<path d="M78.6625 36.051C78.5102 36.5464 78.6637 37.0331 78.9994 37.1358C79.3387 37.2375 79.735 36.9194 79.8873 36.424C80.0397 35.9286 79.8862 35.4419 79.5505 35.3393C79.2112 35.2375 78.8148 35.5556 78.6625 36.051Z" fill="#252938"/>
<path d="M84.5629 37.7376C84.4105 38.233 84.564 38.7196 84.8997 38.8223C85.239 38.924 85.6354 38.6059 85.7877 38.1105C85.94 37.6151 85.7865 37.1284 85.4508 37.0258C85.1115 36.9241 84.7152 37.2422 84.5629 37.7376Z" fill="#252938"/>
<path d="M80.8529 34.7788C80.5593 34.5454 80.2306 34.3253 79.8635 34.2349C79.4914 34.1112 79.105 34.1646 78.7227 34.1322C79.3991 33.5657 80.719 33.79 80.8529 34.7788Z" fill="#C27253"/>
<path d="M81.7518 33.702C81.267 33.4312 80.7723 33.1092 80.2309 32.9576C79.71 32.7389 79.1216 32.8003 78.5762 32.7345C79.5068 31.6068 81.6629 32.1771 81.7518 33.702Z" fill="#252938"/>
<path d="M70.7741 34.6476C70.302 33.1445 69.4719 31.9878 68.9769 32.7715C68.4819 33.5552 68.6748 36.0577 70.1471 36.3335C69.9324 35.374 70.0518 35.0145 70.7741 34.6476Z" fill="#D17B59"/>
<path d="M70.9215 37.7553C71.0425 38.293 70.7049 38.8303 70.1662 38.9477C69.6285 39.0687 69.0911 38.7311 68.9738 38.1924C68.8528 37.6547 69.1904 37.1173 69.7281 36.9964C70.2668 36.879 70.8006 37.2175 70.9215 37.7553Z" fill="white"/>
<path d="M161.282 52.8583C165.799 72.9365 153.185 92.8741 133.107 97.3911C113.029 101.908 93.09 89.2906 88.573 69.2124C84.056 49.1342 96.6699 29.1966 116.748 24.6796C136.83 20.1616 156.765 32.7801 161.282 52.8583Z" fill="#D8AFDF"/>
<path d="M161.282 52.8583C165.799 72.9365 153.185 92.8741 133.107 97.3911C113.029 101.908 93.09 89.2906 88.573 69.2124C84.056 49.1342 96.6699 29.1966 116.748 24.6796C136.83 20.1616 156.765 32.7801 161.282 52.8583Z" fill="#D8AFDF"/>
<path d="M131.037 47.2675C133.277 46.6711 136.74 47.2573 137.56 52.2884C137.294 52.7487 137.323 52.6101 136.967 53.2253C136.436 51.2295 136.344 47.4788 131.793 48.1475C131.24 47.8255 131.037 47.2675 131.037 47.2675Z" fill="#AD5ADC"/>
<path d="M112.76 52.1338C110.52 52.7302 107.808 54.9593 109.596 59.7349C110.056 60.0007 109.963 59.8948 110.578 60.2501C110.047 58.2542 108.261 54.9535 112.545 53.2702C112.862 52.7152 112.76 52.1338 112.76 52.1338Z" fill="#AD5ADC"/>
<path d="M138.88 51.1604C140.937 50.6131 144.151 53.192 142.776 56.5423C141.399 59.889 137.759 59.9746 136.097 57.022C134.435 54.0695 136.275 51.8505 138.88 51.1604Z" fill="#FFCD9B"/>
<path d="M107.89 59.4099C105.829 59.9582 104.322 63.7945 107.182 66.0138C110.042 68.2331 113.244 66.4967 113.215 63.1105C113.19 59.7233 110.493 58.7162 107.89 59.4099Z" fill="#FFCD9B"/>
<path d="M157.188 53.7604C161.188 71.5371 150.019 89.1893 132.242 93.1885C114.465 97.1876 96.8111 86.0166 92.8117 68.2399C88.8123 50.4632 99.9807 32.811 117.758 28.8118C135.538 24.8117 153.189 35.9837 157.188 53.7604Z" fill="#D8AFDF"/>
<path d="M157.188 53.7604C161.188 71.5371 150.019 89.1893 132.242 93.1885C114.465 97.1876 96.8111 86.0166 92.8117 68.2399C88.8123 50.4632 99.9807 32.811 117.758 28.8118C135.538 24.8117 153.189 35.9837 157.188 53.7604Z" fill="white"/>
<path d="M143.442 44.4326C140.253 40.1211 132.204 42.2008 128.851 44.3973C125.942 42.7114 122.541 42.5438 120.165 43.1769C117.791 43.8089 114.921 45.6489 113.234 48.5549C109.236 48.3126 101.215 50.5119 100.593 55.8371C99.7613 62.944 104.829 65.8546 108.093 66.5751C107.793 65.4573 106.627 65.0725 107.626 64.9898C109.245 64.8525 108.263 64.2642 107.561 64.0865C106.982 63.9409 107.178 63.276 107.916 63.1399C109.402 62.8649 108.203 62.3579 107.449 62.2903C106.7 62.2253 102.71 61.5531 102.533 56.55C102.378 52.1649 108.583 50.4601 112.332 50.565C111.704 52.4783 111.575 54.728 112.258 57.2918C113.51 61.9915 116.461 63.3428 120.101 64.8368C123.378 66.1817 121.721 67.1456 121.192 68.9363C120.591 70.9774 121.99 72.9063 124.444 73.9436C127.138 75.0826 126.31 77.9434 127.534 82.5426C129.665 82.3298 131.998 81.6045 133.347 81.0006C132.121 76.3978 129.982 74.3244 131.751 71.9974C133.366 69.8734 133.618 67.506 132.083 66.0334C130.734 64.7383 128.818 64.7317 130.992 61.9339C133.408 58.8288 135.296 56.1848 134.044 51.4851C133.361 48.9213 132.132 47.0356 130.634 45.6879C133.835 43.7322 140.066 42.1281 142.116 46.0093C144.449 50.4345 141.32 53.0028 140.703 53.4338C140.077 53.8713 139.294 54.9017 140.716 54.4012C141.424 54.1537 141.926 54.6318 141.493 55.0443C140.973 55.5459 140.409 56.5483 141.885 55.8601C142.792 55.4359 141.971 56.3533 142.27 57.4675C144.749 55.2315 147.696 50.1849 143.442 44.4326Z" fill="#AD5ADC"/>
<path d="M128.17 51.3453C126.801 48.5918 117.369 50.6451 117.275 54.2456C117.195 57.3836 120.281 57.6313 121.239 58.1875C122.197 58.7437 123.932 61.176 123.12 62.5761C122.309 63.9762 124.106 64.5426 125.015 65.0888C126.44 65.9512 125.357 67.0697 124.735 68.1417C124.113 69.2137 123.927 70.9508 126.071 72.1946C126.701 72.5614 127.844 73.3915 128.067 74.2949C128.545 76.2239 128.869 80.7796 129.576 82.2119C129.981 82.1265 130.886 81.8838 131.441 81.712C131.341 80.1169 128.528 75.281 128.65 74.212C128.704 73.7237 129.092 71.9245 129.459 71.2946C130.702 69.1471 129.676 67.7345 128.604 67.1126C127.532 66.4906 126.033 66.2875 126.788 64.7177C127.247 63.7586 128.634 62.2929 127.234 61.4815C125.834 60.6701 126.127 57.6946 126.683 56.7365C127.244 55.7811 129.54 54.0988 128.17 51.3453Z" fill="#D5AADD"/>
<path d="M132.104 53.4229C131.584 56.3706 131.505 57.6862 129.314 59.8334C130.912 59.0817 132.342 57.8201 132.104 53.4229Z" fill="#D5AADD"/>
<path d="M114.701 57.7236C116.537 60.0902 117.217 61.2179 120.157 62.0981C118.39 62.1748 116.537 61.7276 114.701 57.7236Z" fill="#D5AADD"/>
<path d="M115.928 48.184C115.928 48.184 118.869 44.422 126.378 44.9446C123.803 43.9165 118.059 44.6504 115.928 48.184Z" fill="#D5AADD"/>
<path d="M135.271 42.8698C135.271 42.8698 143.496 41.3441 144.845 49.6853C144.69 44.7378 141.131 41.4191 135.271 42.8698Z" fill="#D4D9EB"/>
<path d="M107.739 49.6729C107.739 49.6729 99.7506 52.1524 102.444 60.164C100.274 55.7144 101.879 51.1237 107.739 49.6729Z" fill="#D4D9EB"/>
<path opacity="0.2" d="M132.462 89.0729C132.085 89.174 131.702 89.2689 131.317 89.3566C131.107 89.4053 130.894 89.2735 130.848 89.0585C130.801 88.8517 130.927 88.6483 131.128 88.5944C131.132 88.5934 131.139 88.5915 131.143 88.5905C131.909 88.4161 132.66 88.2148 133.4 87.9857C133.595 87.9219 133.83 88.0362 133.893 88.2428C133.956 88.4493 133.841 88.6688 133.636 88.7354C133.247 88.8512 132.858 88.967 132.462 89.0729ZM129.003 89.7765C128.988 89.7804 128.97 89.7852 128.955 89.7854C128.164 89.8971 127.362 89.9774 126.569 90.0241C126.352 90.0359 126.166 89.8703 126.154 89.6538C126.142 89.4374 126.309 89.2541 126.524 89.2387C127.294 89.1942 128.078 89.1151 128.847 89.0092C129.062 88.9785 129.261 89.1295 129.292 89.3447C129.321 89.541 129.193 89.7255 129.003 89.7765ZM135.844 87.9356C135.658 87.9856 135.455 87.8898 135.378 87.706C135.297 87.5043 135.394 87.2743 135.596 87.1933C136.314 86.9004 137.028 86.5743 137.718 86.2278C137.911 86.1298 138.148 86.2089 138.246 86.4022C138.344 86.5955 138.265 86.8324 138.072 86.9305C137.363 87.2899 136.628 87.6254 135.888 87.924C135.877 87.9269 135.859 87.9317 135.844 87.9356ZM124.284 90.0509C124.248 90.0605 124.211 90.0665 124.172 90.0654C123.377 90.0435 122.569 89.9903 121.779 89.9052C121.565 89.8818 121.409 89.6885 121.432 89.4706C121.455 89.2563 121.652 89.0995 121.866 89.123C122.636 89.2057 123.42 89.2575 124.196 89.277C124.414 89.2841 124.584 89.4618 124.577 89.6794C124.571 89.8583 124.449 90.0066 124.284 90.0509ZM140.061 85.8003C139.896 85.8446 139.716 85.7772 139.626 85.628C139.511 85.4431 139.569 85.2002 139.755 85.0887C140.416 84.6805 141.066 84.2444 141.686 83.7853C141.86 83.6578 142.108 83.6916 142.236 83.869C142.364 84.0429 142.33 84.2908 142.153 84.4193C141.512 84.8913 140.844 85.3439 140.166 85.7606C140.131 85.7738 140.097 85.7906 140.061 85.8003ZM119.581 89.5351C119.523 89.5505 119.466 89.5542 119.405 89.5399C118.62 89.3879 117.838 89.2007 117.067 88.9835C116.859 88.9238 116.735 88.7065 116.795 88.4979C116.854 88.2893 117.072 88.1656 117.28 88.2253C118.027 88.4375 118.792 88.6178 119.551 88.7648C119.763 88.8081 119.903 89.0134 119.863 89.2244C119.837 89.3855 119.721 89.4976 119.581 89.5351ZM143.866 82.9931C143.726 83.0307 143.572 82.9873 143.468 82.8726C143.324 82.7107 143.342 82.4595 143.505 82.3195C144.088 81.8087 144.657 81.2711 145.196 80.7106C145.347 80.5546 145.596 80.5495 145.752 80.7003C145.908 80.8511 145.913 81.1002 145.762 81.2562C145.207 81.8287 144.624 82.3855 144.025 82.9083C143.975 82.9525 143.92 82.9787 143.866 82.9931ZM115.026 88.2515C114.95 88.2717 114.866 88.2713 114.787 88.2383C114.038 87.9576 113.295 87.6442 112.576 87.3052C112.378 87.2119 112.297 86.9795 112.39 86.7812C112.483 86.5828 112.715 86.5013 112.914 86.5945C113.614 86.9231 114.336 87.2305 115.064 87.5016C115.265 87.5786 115.369 87.8052 115.295 88.0059C115.249 88.134 115.144 88.2197 115.026 88.2515ZM147.156 79.5998C147.037 79.6316 146.908 79.6085 146.805 79.5245C146.637 79.3883 146.613 79.1405 146.749 78.973C147.244 78.3744 147.715 77.7472 148.157 77.1089C148.282 76.9289 148.525 76.8869 148.704 77.0085C148.884 77.1336 148.926 77.3766 148.804 77.5556C148.351 78.2086 147.866 78.8549 147.361 79.4718C147.304 79.5333 147.232 79.5796 147.156 79.5998ZM110.75 86.2383C110.653 86.2643 110.546 86.2544 110.45 86.1991C109.758 85.8028 109.076 85.3692 108.423 84.9163C108.244 84.7947 108.201 84.5481 108.323 84.3691C108.444 84.1902 108.69 84.1436 108.87 84.2688C109.508 84.7103 110.171 85.1297 110.841 85.5165C111.028 85.6243 111.093 85.8652 110.985 86.052C110.933 86.1468 110.847 86.2123 110.75 86.2383ZM149.846 75.7084C149.749 75.7344 149.643 75.7245 149.547 75.6692C149.36 75.5613 149.296 75.3205 149.403 75.1337C149.79 74.4637 150.155 73.7689 150.486 73.0637C150.58 72.869 150.812 72.7839 151.01 72.8771C151.205 72.9713 151.29 73.2028 151.197 73.4011C150.855 74.1245 150.48 74.8375 150.083 75.5293C150.031 75.6205 149.943 75.6824 149.846 75.7084ZM106.858 83.548C106.74 83.5798 106.61 83.5567 106.507 83.4727C105.89 82.9676 105.287 82.4281 104.715 81.8763C104.559 81.7254 104.554 81.4764 104.705 81.3204C104.856 81.1644 105.105 81.1593 105.261 81.3101C105.817 81.8469 106.404 82.3714 107.002 82.8623C107.169 82.9985 107.193 83.2463 107.057 83.4138C107.007 83.485 106.934 83.5278 106.858 83.548ZM151.863 71.4312C151.788 71.4514 151.703 71.451 151.625 71.418C151.423 71.3411 151.32 71.1145 151.393 70.9137C151.664 70.1862 151.912 69.4418 152.12 68.6964C152.18 68.4877 152.397 68.364 152.606 68.4237C152.815 68.4834 152.938 68.7006 152.879 68.9093C152.66 69.6766 152.412 70.4444 152.13 71.1902C152.082 71.3146 151.982 71.3994 151.863 71.4312ZM103.461 80.2591C103.321 80.2966 103.167 80.2532 103.063 80.1385C102.54 79.5389 102.033 78.912 101.56 78.2682C101.433 78.0943 101.466 77.8464 101.644 77.718C101.818 77.5905 102.066 77.6243 102.194 77.8017C102.654 78.4258 103.146 79.0377 103.656 79.6212C103.8 79.7831 103.782 80.0343 103.62 80.1742C103.57 80.2184 103.519 80.2436 103.461 80.2591ZM153.151 66.8791C153.094 66.8945 153.037 66.8982 152.975 66.8839C152.763 66.8405 152.624 66.6353 152.667 66.4233C152.814 65.6635 152.934 64.888 153.019 64.1139C153.043 63.8995 153.239 63.7428 153.454 63.7663C153.668 63.7897 153.824 63.983 153.801 64.2009C153.714 64.9949 153.593 65.794 153.44 66.5746C153.403 66.7269 153.292 66.8416 153.151 66.8791ZM100.655 76.4574C100.49 76.5017 100.31 76.4343 100.22 76.2851C99.7986 75.6044 99.4058 74.9006 99.0464 74.1917C98.9483 73.9984 99.0274 73.7615 99.2207 73.6635C99.414 73.5654 99.651 73.6445 99.749 73.8378C100.099 74.5261 100.483 75.2128 100.892 75.8739C101.007 76.0588 100.949 76.3017 100.763 76.4132C100.726 76.4345 100.691 76.4478 100.655 76.4574ZM153.663 62.1768C153.628 62.1864 153.591 62.1925 153.552 62.1913C153.334 62.1841 153.163 62.0065 153.17 61.7888C153.191 61.0167 153.177 60.2308 153.135 59.4561C153.123 59.2397 153.289 59.0527 153.505 59.041C153.722 59.0292 153.908 59.1949 153.92 59.4113C153.964 60.2085 153.981 61.017 153.958 61.809C153.951 61.9842 153.829 62.1325 153.663 62.1768ZM98.5126 72.2429C98.3221 72.2939 98.1228 72.1971 98.0466 72.0133C97.7454 71.2773 97.4726 70.5183 97.2342 69.7578C97.1711 69.5512 97.2857 69.3318 97.4913 69.2651C97.7033 69.2083 97.9209 69.3157 97.9839 69.5222C98.2166 70.2612 98.4809 71.0032 98.7728 71.7186C98.8538 71.9203 98.7575 72.1503 98.5557 72.2313C98.544 72.2306 98.5306 72.2381 98.5126 72.2429ZM153.396 57.456C153.382 57.4598 153.364 57.4646 153.349 57.4649C153.133 57.4956 152.935 57.3446 152.904 57.1293C152.796 56.3648 152.654 55.59 152.486 54.8338L152.473 54.7717C152.424 54.5613 152.575 54.3475 152.766 54.3001C152.977 54.2514 153.189 54.3832 153.238 54.5936L153.251 54.6557C153.426 55.4371 153.572 56.2299 153.683 57.017C153.711 57.2214 153.587 57.4049 153.396 57.456ZM97.0951 67.7147C97.0915 67.7157 97.0843 67.7176 97.0807 67.7186C96.8703 67.7672 96.6617 67.6498 96.613 67.4394L96.9942 67.3527L96.6053 67.4106C96.4299 66.6409 96.2885 65.8544 96.178 65.0827C96.1473 64.8675 96.2983 64.6691 96.5135 64.6384C96.7287 64.6077 96.9271 64.7587 96.9578 64.9739C97.0635 65.7276 97.2018 66.488 97.3724 67.2398C97.4181 67.4394 97.2964 67.6608 97.0951 67.7147ZM152.337 52.7818C152.135 52.8358 151.924 52.7229 151.862 52.5199C151.628 51.7774 151.361 51.0399 151.069 50.3245C150.988 50.1228 151.085 49.8928 151.286 49.8118C151.487 49.7272 151.718 49.8271 151.799 50.0288C152.099 50.7612 152.373 51.5239 152.612 52.2844C152.678 52.49 152.561 52.714 152.354 52.777C152.351 52.778 152.344 52.7799 152.337 52.7818ZM96.4344 63.0492C96.4093 63.056 96.3831 63.0591 96.357 63.0623C96.1406 63.0741 95.9537 62.9084 95.9419 62.692C95.8942 61.8957 95.8825 61.0899 95.9007 60.2952C95.9043 60.0785 96.0855 59.9067 96.3032 59.9139C96.5199 59.9175 96.6917 60.0987 96.6845 60.3164C96.6651 61.0921 96.6782 61.8744 96.7237 62.6481C96.735 62.8339 96.6106 63.0021 96.4344 63.0492ZM150.551 48.4025C150.374 48.4497 150.184 48.3698 150.099 48.1998C149.748 47.5079 149.365 46.8248 148.958 46.1673C148.843 45.9824 148.901 45.7395 149.086 45.6244C149.271 45.5094 149.514 45.5676 149.629 45.7525C150.049 46.4296 150.445 47.1324 150.806 47.8449C150.904 48.0382 150.828 48.2742 150.635 48.3722C150.604 48.388 150.576 48.3957 150.551 48.4025ZM96.5508 58.322C96.5041 58.3345 96.4554 58.3398 96.4074 58.3334C96.1931 58.3099 96.0373 58.1167 96.0598 57.8988C96.1476 57.1048 96.265 56.3067 96.418 55.526C96.4614 55.3141 96.6666 55.1743 96.8776 55.2141C97.0922 55.2529 97.2293 55.4627 97.1895 55.6737C97.0425 56.4335 96.9239 57.2127 96.8411 57.9822C96.8241 58.1486 96.7053 58.2805 96.5508 58.322ZM148.064 44.3842C147.913 44.4247 147.745 44.3734 147.647 44.2378C147.187 43.6137 146.692 43.0028 146.182 42.4229C146.039 42.261 146.056 42.0098 146.219 41.8698C146.384 41.7253 146.632 41.7437 146.772 41.9066C147.298 42.5052 147.802 43.1331 148.277 43.7723C148.405 43.9461 148.371 44.194 148.197 44.3215C148.155 44.352 148.111 44.3717 148.064 44.3842ZM97.452 53.6772C97.3873 53.6945 97.3142 53.6948 97.2435 53.6752C97.0349 53.6156 96.9111 53.3983 96.9708 53.1897C97.1854 52.4234 97.4378 51.6546 97.716 50.9097C97.7929 50.708 98.0195 50.6049 98.2203 50.6783C98.4255 50.7543 98.5286 50.9809 98.4517 51.1826C98.1805 51.9102 97.9367 52.6535 97.7254 53.4036C97.6889 53.5405 97.5814 53.6425 97.452 53.6772ZM144.947 40.8315C144.817 40.8662 144.674 40.8352 144.571 40.7359C144.015 40.1991 143.428 39.6782 142.826 39.1847C142.658 39.0485 142.634 38.8007 142.771 38.6332C142.907 38.4657 143.155 38.4417 143.322 38.5779C143.939 39.0829 144.545 39.6179 145.113 40.1707C145.269 40.3215 145.274 40.5706 145.123 40.7266C145.079 40.7769 145.015 40.8132 144.947 40.8315ZM99.1033 49.2436C99.017 49.2667 98.923 49.2611 98.8348 49.2192C98.6364 49.126 98.5549 48.8936 98.6481 48.6952C98.9872 47.9764 99.3615 47.2597 99.7578 46.568C99.8657 46.3811 100.106 46.313 100.293 46.4245C100.48 46.5323 100.545 46.7732 100.437 46.96C100.051 47.6336 99.6863 48.3284 99.3578 49.029C99.3064 49.1391 99.2111 49.2147 99.1033 49.2436ZM141.286 37.8368C141.178 37.8657 141.061 37.8469 140.963 37.7808C140.325 37.3429 139.662 36.9235 138.988 36.5377C138.802 36.4298 138.734 36.19 138.845 36.0021C138.953 35.8153 139.193 35.7472 139.381 35.8586C140.072 36.255 140.755 36.6885 141.41 37.1369C141.589 37.2585 141.632 37.5051 141.511 37.684C141.454 37.7608 141.376 37.8127 141.286 37.8368ZM101.464 45.1438C101.356 45.1727 101.236 45.1548 101.141 45.0878C100.962 44.9663 100.919 44.7197 101.041 44.5407C101.494 43.8877 101.976 43.2423 102.484 42.6245C102.62 42.457 102.868 42.433 103.036 42.5692C103.203 42.7054 103.227 42.9532 103.091 43.1207C102.597 43.7229 102.126 44.3501 101.688 44.9875C101.629 45.0688 101.55 45.1207 101.464 45.1438ZM137.183 35.4804C137.097 35.5035 137.003 35.4979 136.915 35.456C136.21 35.1249 135.489 34.8211 134.762 34.5535C134.561 34.4765 134.454 34.2509 134.531 34.0492C134.607 33.8439 134.834 33.7408 135.035 33.8177C135.78 34.0959 136.526 34.4083 137.245 34.7473C137.444 34.8405 137.525 35.073 137.435 35.2703C137.387 35.3759 137.295 35.4505 137.183 35.4804ZM104.46 41.4864C104.331 41.5211 104.187 41.4901 104.084 41.3908C103.928 41.2399 103.923 40.9909 104.073 40.8349C104.629 40.2623 105.212 39.7055 105.811 39.1827C105.973 39.0392 106.224 39.0566 106.368 39.2185C106.511 39.3804 106.494 39.6316 106.331 39.7715C105.748 40.2823 105.18 40.8235 104.64 41.3805C104.588 41.4328 104.525 41.4691 104.46 41.4864ZM132.753 33.8281C132.689 33.8455 132.616 33.8458 132.545 33.8262C131.799 33.614 131.034 33.4337 130.274 33.2868C130.063 33.247 129.922 33.0381 129.962 32.8271C130.002 32.6162 130.211 32.4754 130.422 32.5152C131.202 32.6682 131.991 32.8499 132.758 33.068C132.966 33.1277 133.09 33.345 133.03 33.5536C132.991 33.6951 132.883 33.7935 132.753 33.8281ZM108.013 38.3694C107.862 38.4099 107.694 38.3585 107.596 38.223C107.468 38.0491 107.502 37.8012 107.68 37.6728C108.323 37.1998 108.988 36.7481 109.665 36.3278C109.85 36.2128 110.093 36.271 110.205 36.4569C110.32 36.6418 110.261 36.8847 110.076 36.9961C109.418 37.4034 108.769 37.8431 108.145 38.3031C108.104 38.3372 108.059 38.3569 108.013 38.3694ZM128.106 32.9315C128.059 32.944 128.011 32.9493 127.963 32.9429C127.193 32.8602 126.409 32.8084 125.633 32.7889C125.416 32.7854 125.245 32.6041 125.252 32.3865C125.259 32.1688 125.437 31.9979 125.654 32.0051C126.449 32.0233 127.257 32.0765 128.046 32.1616C128.26 32.1851 128.416 32.3784 128.394 32.5963C128.38 32.7617 128.261 32.8901 128.106 32.9315ZM112.035 35.8854C111.859 35.9326 111.668 35.8527 111.584 35.6826C111.486 35.4893 111.565 35.2524 111.755 35.1553C112.468 34.7949 113.202 34.4594 113.938 34.1582C114.143 34.0762 114.37 34.1735 114.451 34.3752C114.532 34.577 114.435 34.807 114.234 34.888C113.515 35.1808 112.804 35.506 112.113 35.857C112.088 35.8673 112.061 35.8786 112.035 35.8854ZM123.38 32.8187C123.355 32.8255 123.328 32.8286 123.302 32.8318C122.529 32.8773 121.748 32.9554 120.98 33.0649C120.765 33.0956 120.567 32.9446 120.537 32.733C120.506 32.5177 120.653 32.3203 120.869 32.2896C121.659 32.1779 122.462 32.0976 123.255 32.0509C123.471 32.0391 123.658 32.2048 123.67 32.4212C123.68 32.6033 123.556 32.7715 123.38 32.8187ZM116.415 34.0994C116.214 34.1533 116.002 34.0404 115.94 33.8375C115.877 33.6309 115.992 33.4115 116.197 33.3448C116.958 33.1064 117.73 32.8957 118.515 32.72C118.725 32.6714 118.938 32.8032 118.984 33.0181C119.032 33.2285 118.898 33.4456 118.686 33.4871C117.923 33.6606 117.168 33.8629 116.433 34.0946C116.426 34.0965 116.418 34.0984 116.415 34.0994Z" fill="#32436B"/>
<path d="M119.215 37.2478C119.307 37.5893 119.103 37.9366 118.766 38.0271C118.424 38.1186 118.073 37.916 117.983 37.5781L116.1 30.5512C116.008 30.2097 116.212 29.8624 116.553 29.7709C116.895 29.6794 117.242 29.8829 117.333 30.2208L119.215 37.2478Z" fill="#120938"/>
<path d="M133.757 91.5195C133.849 91.861 133.645 92.2083 133.307 92.2989C132.966 92.3904 132.615 92.1878 132.525 91.8499L130.641 84.8193C130.549 84.4779 130.753 84.1305 131.094 84.039C131.436 83.9475 131.783 84.1511 131.874 84.489L133.757 91.5195Z" fill="#120938"/>
<path d="M101.141 66.746C101.483 66.6545 101.83 66.8581 101.921 67.1959C102.012 67.5374 101.81 67.8883 101.472 67.9789L94.4409 69.8627C94.0994 69.9542 93.7521 69.7506 93.6606 69.4092C93.5691 69.0677 93.7726 68.7204 94.1105 68.6298L101.141 66.746Z" fill="#120938"/>
<path d="M155.413 52.204C155.754 52.1125 156.102 52.3161 156.192 52.6539C156.284 52.9954 156.081 53.3464 155.743 53.437L148.713 55.3207C148.371 55.4122 148.024 55.2086 147.932 54.8672C147.841 54.5257 148.044 54.1784 148.382 54.0878L155.413 52.204Z" fill="#120938"/>
<path d="M152.931 36.4386C153.574 33.8201 154.186 32.0225 155.558 32.4138C156.931 32.805 155.906 35.7802 155.812 36.911C158.204 37.4259 158.732 37.9468 158.869 38.5574C159.006 39.168 160.478 40.0062 160.539 41.5694C160.599 43.1327 161.35 43.4901 161.345 44.9516C161.34 46.4131 162.091 47.044 160.649 49.3258C159.207 51.6076 156.673 52.6602 157.257 50.6005C156.295 51.5248 154.259 52.5826 154.719 50.4717C153.664 51.2359 152.697 50.5743 153.735 48.1811C152.011 49.0667 151.317 47.7542 155.466 39.6617C154.616 38.499 153.876 37.4915 152.931 36.4386Z" fill="#D58230"/>
<path d="M153.73 48.1821C154.334 46.9263 154.914 45.6537 155.534 44.4049C156.109 43.2416 156.596 42.0402 157.21 40.897C156.424 43.4268 155.345 46.0545 153.73 48.1821Z" fill="#C27253"/>
<path d="M154.715 50.4724C155.412 49.2222 156.127 47.979 156.815 46.72C157.456 45.5466 158.055 44.3459 158.708 43.1768C157.834 45.7803 156.48 48.3621 154.715 50.4724Z" fill="#C27253"/>
<path d="M157.254 50.6016C157.774 49.7994 158.318 48.9951 158.757 48.1455C159.195 47.2924 159.594 46.4263 160.006 45.561C159.656 47.4344 158.703 49.3271 157.254 50.6016Z" fill="#C27253"/>
</g>
</svg>
